HIERARCHY
ROOT Pelvis
{
	OFFSET 0.000000 0.941035 0.000000
	CHANNELS 6 Xposition Yposition Zposition Zrotation Yrotation Xrotation 
	JOINT L_Hip
	{
		OFFSET 0.057686 -0.087876 0.003035
		CHANNELS 3 Zrotation Yrotation Xrotation
		JOINT L_Knee
		{
			OFFSET 0.066837 -0.370709 0.088464
			CHANNELS 3 Zrotation Yrotation Xrotation
			JOINT L_Ankle
			{
				OFFSET -0.027322 -0.333445 -0.274811
				CHANNELS 3 Zrotation Yrotation Xrotation
				End Site #name: L_Foot
				{
					OFFSET 0.038237 -0.114310 0.054278
				}
			}
		}
	}
	JOINT R_Hip
	{
		OFFSET -0.065350 -0.088910 0.002498
		CHANNELS 3 Zrotation Yrotation Xrotation
		JOINT R_Knee
		{
			OFFSET -0.028454 -0.381047 0.044090
			CHANNELS 3 Zrotation Yrotation Xrotation
			JOINT R_Ankle
			{
				OFFSET 0.016163 -0.423846 -0.047572
				CHANNELS 3 Zrotation Yrotation Xrotation
				End Site #name: R_Foot
				{
					OFFSET -0.009622 -0.032750 0.134062
				}
			}
		}
	}
	JOINT Spine1
	{
		OFFSET -0.005279 0.118769 -0.056580
		CHANNELS 3 Zrotation Yrotation Xrotation
		JOINT Spine2
		{
			OFFSET -0.007634 0.144702 0.027905
			CHANNELS 3 Zrotation Yrotation Xrotation
			JOINT Spine3
			{
				OFFSET 0.000748 0.046230 0.005199
				CHANNELS 3 Zrotation Yrotation Xrotation
				JOINT Neck
				{
					OFFSET -0.000232 0.233968 -0.017512
					CHANNELS 3 Zrotation Yrotation Xrotation
					End Site #name: Head
					{
						OFFSET -0.006835 0.081713 0.051245
					}
				}
				JOINT L_Collar
				{
					OFFSET 0.071527 0.121607 -0.017895
					CHANNELS 3 Zrotation Yrotation Xrotation
					JOINT L_Shoulder
					{
						OFFSET 0.133001 -0.004043 -0.012321
						CHANNELS 3 Zrotation Yrotation Xrotation
						JOINT L_Elbow
						{
							OFFSET 0.052737 -0.250397 -0.063200
							CHANNELS 3 Zrotation Yrotation Xrotation
							End Site #name: L_Wrist
							{
								OFFSET 0.051457 -0.236165 0.110090
							}
						}
					}
				}
				JOINT R_Collar
				{
					OFFSET -0.081278 0.121064 -0.009232
					CHANNELS 3 Zrotation Yrotation Xrotation
					JOINT R_Shoulder
					{
						OFFSET -0.122592 -0.023311 -0.025134
						CHANNELS 3 Zrotation Yrotation Xrotation
						JOINT R_Elbow
						{
							OFFSET -0.013135 -0.257831 -0.078973
							CHANNELS 3 Zrotation Yrotation Xrotation
							End Site #name: R_Wrist
							{
								OFFSET -0.047187 -0.260179 0.065369
							}
						}
					}
				}
			}
		}
	}
}
MOTION
Frames: 17
Frame Time: 0.041667
0.000000 0.941035 0.000000 -0.003545 -0.000538 -0.000633 0.000000 0.000000 0.000000 0.000000 0.000000 0.000000 0.000000 0.000000 0.000000 0.000000 0.000000 0.000000 0.000000 0.000000 0.000000 0.000000 0.000000 0.000000 0.008434 -0.001534 0.001759 -0.021468 0.002492 -0.004880 0.008463 0.000551 0.001859 0.012121 -0.007262 0.004071 0.013597 -0.001550 0.001212 -0.009805 0.002671 0.000933 0.000000 0.000000 0.000000 0.013720 -0.002877 -0.002266 0.000000 0.000000 0.000000 0.000000 0.000000 0.000000 
-0.002997 0.943484 0.021124 0.128434 -0.046984 -0.276125 0.563107 -0.648159 -4.428920 -1.301874 0.771934 4.616114 3.195130 1.525072 0.072724 -0.100798 -0.211600 2.716940 0.242437 -0.079683 -1.460064 -0.003138 0.210636 -0.741707 -0.195279 0.067859 0.553245 -0.052637 0.009478 -0.226474 0.162609 0.199086 0.034181 -0.247263 0.164783 0.111714 -0.199042 0.848939 0.005889 -0.290312 0.164567 0.427171 -0.473413 -0.125934 0.426307 -0.242797 1.073847 -0.157058 -0.425105 0.156536 -0.562969 0.399370 0.297394 -1.061230 
-0.004774 0.945525 0.042351 0.344125 -0.118293 -0.381717 0.814779 -1.126268 -7.521691 -1.757846 1.167661 4.802788 5.330556 2.239022 -0.928622 -0.329408 -0.411138 5.223221 0.328639 -0.141331 -2.973016 0.038658 0.607187 -1.421183 -0.455250 0.128135 0.707940 -0.193191 0.024275 -0.176260 0.279018 0.365702 0.058141 -0.372543 0.262786 0.329201 -0.395898 1.597458 0.006360 -0.413359 0.256809 0.708988 -0.624345 -0.147404 0.642227 -0.384485 2.010059 -0.311485 -0.784629 0.301554 -1.416518 0.718623 0.570347 -2.060003 
-0.005455 0.946634 0.063502 0.617075 -0.177959 -0.382524 0.690836 -1.560715 -9.707432 -1.379264 1.050344 1.369281 6.521385 2.502719 -2.055159 -0.683948 -0.581948 7.375166 0.391969 -0.191908 -4.282848 0.096731 1.033271 -1.921218 -0.637206 0.168510 0.777730 -0.469906 0.055639 -0.232907 0.353965 0.502769 0.230593 -0.602746 0.404288 0.286504 -0.506898 2.199200 0.010153 -0.485111 0.308222 0.860696 -0.760332 -0.219053 0.602020 -0.484072 2.846214 -0.456787 -1.055649 0.424023 -2.484213 0.958623 0.805128 -2.939695 
-0.005020 0.947254 0.084643 0.952593 -0.203693 -0.230031 0.374420 -1.956005 -11.264946 -0.564010 0.852020 -5.462698 7.237648 2.486206 -3.455766 -1.154392 -0.720487 9.177817 0.383944 -0.226144 -5.293281 0.155381 1.456358 -2.360878 -0.836304 0.217464 0.928467 -0.810095 0.095915 -0.535343 0.377103 0.604729 0.492302 -0.914992 0.561462 -0.134544 -0.539905 2.699238 0.019287 -0.510813 0.315384 0.862768 -0.886970 -0.345430 0.302284 -0.669978 3.516237 -0.556136 -1.208664 0.515305 -3.724049 1.282954 1.069366 -3.820299 
-0.003373 0.946375 0.106076 1.218960 -0.256337 0.084020 -0.036409 -2.245548 -12.028697 0.441624 0.721450 -13.401810 6.847810 1.914113 -4.881424 -1.576473 -0.811864 10.458934 0.289528 -0.236310 -5.757075 0.174902 1.694627 -2.747679 -0.996276 0.266272 1.195744 -1.089466 0.128869 -0.973295 0.312886 0.647119 0.702564 -1.184159 0.662060 -0.831454 -0.564979 2.955396 0.022888 -0.518450 0.289883 0.735708 -0.857889 -0.455984 -0.243472 -0.877897 3.961939 -0.609235 -1.338913 0.589931 -4.778270 1.730816 1.378873 -4.710616 
-0.000525 0.944175 0.128275 1.336363 -0.329689 0.544258 -0.543582 -2.368881 -11.736656 1.607566 0.659464 -21.489225 4.850831 0.621011 -5.779194 -1.859170 -0.866783 11.300344 0.036973 -0.217322 -5.665048 0.187834 1.976954 -3.297001 -1.119104 0.304855 1.409866 -1.303972 0.152308 -1.224029 0.243803 0.663695 0.680660 -1.269013 0.650483 -1.485266 -0.556959 2.969603 0.024198 -0.523699 0.226363 0.435659 -0.817127 -0.613062 -1.016189 -0.978942 4.268879 -0.653928 -1.465423 0.649975 -5.529363 2.237629 1.693161 -5.494228 
0.003500 0.941627 0.151734 1.226667 -0.524500 0.968098 -1.610147 -2.450886 -10.304384 3.109996 0.501685 -28.452380 1.390987 -1.228674 -5.779839 -1.863773 -0.913682 12.116690 -0.590109 -0.151332 -5.039755 0.122353 2.032952 -4.165893 -1.156016 0.302672 1.255917 -1.231778 0.142340 -0.726388 0.021199 0.653652 0.145278 -1.051720 0.578151 -0.852933 -0.545830 2.995000 0.026163 -0.448291 0.113878 0.002960 -1.094369 -0.799734 -1.248037 -1.062075 4.709260 -0.729307 -1.354476 0.637046 -5.941726 2.516518 1.866532 -5.909718 
0.009174 0.937947 0.176844 1.244643 -0.614329 1.086282 -2.512552 -2.576964 -9.456344 3.635720 0.232616 -28.246531 1.043096 -1.409080 -5.757655 -2.017711 -0.921649 12.234587 -1.361490 0.055242 -1.949114 0.093642 2.339186 -5.167360 -1.454236 0.338575 0.876898 -1.050534 0.121448 -0.482828 -0.114517 0.586742 0.129615 -0.509050 0.255493 -0.713437 -0.499838 2.510648 0.019034 -0.382679 0.042619 -0.252276 -1.216689 -0.974712 -1.743290 -0.771463 4.544174 -0.743958 -1.381241 0.644833 -5.971584 2.463584 1.840081 -5.862402 
0.016139 0.938288 0.201806 1.539322 -0.649170 1.002872 -3.801322 -2.694712 -8.072807 4.126093 -0.105897 -27.240612 1.116505 -1.590401 -6.409105 -2.512621 -0.765721 9.143630 -2.229576 0.702030 7.730702 0.199272 3.229307 -5.866270 -1.956847 0.427046 0.698160 -1.098464 0.127600 -0.632447 -0.082864 0.455500 0.518815 -0.365381 0.154682 -0.849666 -0.470446 1.569516 -0.002309 -0.333792 -0.123878 -0.975579 -1.093987 -0.885375 -1.616823 -0.333135 3.733144 -0.657411 -1.128548 0.585897 -6.078701 2.083078 1.551277 -5.036668 
0.023044 0.940399 0.224599 1.740558 -0.582704 0.811170 -4.651196 -2.560194 -6.320197 4.313887 -0.162412 -27.567339 0.965969 -1.877462 -7.005197 -3.150768 -0.603574 5.154330 -2.109653 1.257619 17.515409 0.465642 3.487130 -3.733539 -2.254619 0.488335 0.723248 -0.851028 0.094910 0.089900 -0.364751 0.279284 0.097727 -0.026301 -0.054788 -0.852859 -0.246618 0.374018 -0.012278 -0.229175 -0.259905 -1.497924 -0.954021 -0.881080 -1.891801 -0.325164 3.142159 -0.543226 -0.728406 0.482645 -5.992394 1.685632 1.410380 -4.933219 
0.028969 0.943111 0.245524 2.066691 -0.415979 0.415992 -5.528207 -2.236246 -3.843730 4.323875 -0.078725 -28.398353 0.743383 -2.348615 -8.001942 -3.865877 -0.428307 -0.446916 -1.999739 1.926336 28.959017 0.776503 2.379824 2.082865 -2.305139 0.556074 1.502303 -0.545913 0.060792 0.052114 -1.192692 -0.021671 -0.050428 0.684841 -0.461960 -0.435197 0.224088 -1.275131 -0.020521 0.278724 -0.453296 -1.849323 -0.871980 -1.163549 -3.279214 -0.211360 2.608583 -0.459890 -0.369457 0.372928 -5.556610 1.389743 1.440628 -5.530094 
0.033006 0.946081 0.265258 2.145839 -0.318561 0.102197 -6.157543 -1.862218 -1.569531 4.745175 -0.227350 -28.863293 0.852531 -2.741191 -9.297376 -3.982372 -0.211687 -6.260393 -1.279252 2.109960 36.934574 -0.239945 -1.583337 2.560432 -2.132121 0.571337 2.205871 -0.564125 0.064075 -0.057470 -1.663056 -0.314690 0.070239 0.977317 -0.640330 -0.389179 0.766316 -3.007449 -0.040676 0.934905 -0.700314 -2.316879 -0.863210 -1.550949 -4.942826 0.061545 1.825931 -0.360005 -0.299222 0.342218 -5.281431 1.513964 1.587571 -6.070641 
0.035572 0.951036 0.284639 1.828845 -0.281091 -0.100402 -6.261222 -1.325383 0.770779 5.095149 -0.287054 -29.785718 1.163549 -2.929765 -10.352079 -3.487846 0.040687 -10.014990 -0.867391 1.874607 36.129284 -0.738643 -3.221608 1.189272 -1.757374 0.525574 2.699226 -0.326986 0.040973 -0.316444 -1.981404 -0.548514 0.289633 1.246529 -0.792571 -0.168564 1.205788 -3.887692 -0.047609 1.368688 -0.931939 -2.994156 -0.677029 -1.752840 -6.208586 0.304366 0.922451 -0.235630 -0.372873 0.347203 -4.980615 1.574343 1.640160 -6.237451 
0.036918 0.954065 0.303759 1.480669 -0.289314 -0.101815 -6.131717 -0.832022 2.718766 5.191925 -0.248046 -30.519407 1.512037 -3.121935 -11.493286 -2.702410 0.315804 -12.192045 -1.410816 1.757573 29.941096 -0.785504 -3.210180 0.011300 -1.536541 0.491025 2.900385 0.060191 0.000325 -0.424526 -2.140636 -0.701640 0.386534 1.511492 -0.954300 -0.113658 1.573410 -4.158427 -0.037967 1.590092 -1.123211 -3.731611 -0.249413 -1.783308 -7.320527 0.270219 0.125012 -0.078860 -0.327812 0.319720 -4.642071 1.538412 1.584155 -6.015993 
0.037086 0.952916 0.322967 1.323942 -0.318967 0.107467 -6.035658 -0.526425 3.929149 5.131665 -0.245062 -30.304501 1.764039 -3.517381 -13.052329 -2.310205 0.444640 -12.912021 -1.832563 1.390230 21.091230 -0.621936 -2.399166 -0.703622 -1.454233 0.473426 2.907568 0.372691 -0.029269 -0.649495 -2.210866 -0.775747 0.503151 1.638138 -1.048376 -0.349913 1.946476 -4.211948 -0.019417 1.711589 -1.281244 -4.422369 0.175903 -1.773068 -8.286558 0.078583 -0.519339 0.082198 -0.137197 0.241600 -4.063223 1.400729 1.458574 -5.602971 
0.036159 0.951016 0.342983 1.268746 -0.329529 0.347946 -5.915291 -0.284278 4.861382 4.948309 -0.226244 -29.725061 2.091560 -3.741124 -14.269428 -2.251606 0.422305 -12.279326 -1.823172 0.865351 11.982891 -0.143393 -0.587864 0.004060 -1.468374 0.473037 2.855232 0.484451 -0.035127 -0.946491 -2.093160 -0.788081 0.568845 1.816311 -1.167435 -0.486258 2.108360 -4.171938 -0.008372 1.939363 -1.379229 -4.690142 0.249351 -1.840026 -8.752403 -0.053506 -0.983374 0.198091 0.102948 0.139062 -3.313362 1.202849 1.297521 -5.096009 
